<svg width="25" height="25" viewBox="0 0 25 25" fill="none" xmlns="http://www.w3.org/2000/svg">
<path d="M12.4887 6.85537C12.2208 6.85537 11.9639 6.95866 11.7745 7.14252C11.585 7.32637 11.4786 7.57574 11.4786 7.83575V12.7377C11.4787 12.9976 11.5851 13.247 11.7746 13.4308L14.8048 16.3719C14.9953 16.5505 15.2505 16.6493 15.5153 16.6471C15.7802 16.6449 16.0335 16.5418 16.2208 16.36C16.4081 16.1782 16.5143 15.9323 16.5166 15.6753C16.5189 15.4182 16.4171 15.1706 16.2331 14.9857L13.4988 12.3318V7.83575C13.4988 7.57574 13.3924 7.32637 13.2029 7.14252C13.0135 6.95866 12.7566 6.85537 12.4887 6.85537ZM24.4199 10.9063C24.0731 8.7748 23.1291 6.77691 21.6909 5.13124C20.2528 3.48556 18.3761 2.2555 16.266 1.57563C14.1559 0.895754 11.8938 0.79227 9.72721 1.27649C7.56061 1.76072 5.57296 2.81399 3.98173 4.32108V1.95346C3.98173 1.69345 3.87531 1.44409 3.68588 1.26023C3.49645 1.07637 3.23953 0.973083 2.97164 0.973083C2.70375 0.973083 2.44683 1.07637 2.2574 1.26023C2.06797 1.44409 1.96155 1.69345 1.96155 1.95346V5.87499C1.96155 6.39502 2.17439 6.89374 2.55325 7.26146C2.9321 7.62917 3.44594 7.83575 3.98173 7.83575H8.02209C8.28998 7.83575 8.5469 7.73246 8.73633 7.5486C8.92576 7.36475 9.03218 7.11538 9.03218 6.85537C9.03218 6.59536 8.92576 6.34599 8.73633 6.16214C8.5469 5.97828 8.28998 5.87499 8.02209 5.87499H5.24333C6.85745 4.28445 8.98301 3.27688 11.2678 3.01923C13.5526 2.76158 15.8596 3.2693 17.8064 4.45828C19.7533 5.64725 21.2232 7.44612 21.9726 9.55684C22.722 11.6676 22.706 13.9634 21.9271 16.0641C21.1483 18.1648 19.6533 19.9441 17.6901 21.1073C15.7268 22.2706 13.4129 22.7478 11.1319 22.4601C8.85092 22.1724 6.73965 21.1369 5.14791 19.5253C3.55617 17.9136 2.57951 15.8225 2.37973 13.5984C2.35354 13.3595 2.2362 13.1386 2.05079 12.9794C1.86538 12.8201 1.62529 12.7339 1.37772 12.7377C1.23645 12.738 1.09681 12.7669 0.967701 12.8226C0.838588 12.8782 0.72283 12.9594 0.627804 13.0608C0.532778 13.1623 0.460567 13.2818 0.415773 13.4118C0.370978 13.5419 0.354582 13.6796 0.367629 13.8161C0.52736 15.3782 1.0076 16.8936 1.78005 18.2728C2.5525 19.6521 3.60155 20.8673 4.86538 21.847C6.12921 22.8266 7.58226 23.5509 9.13894 23.977C10.6956 24.4032 12.3244 24.5227 13.9294 24.3284C15.5344 24.1341 17.0831 23.6301 18.4842 22.8459C19.8854 22.0617 21.1107 21.0133 22.0879 19.7624C23.0652 18.5115 23.7746 17.0834 24.1744 15.5623C24.5742 14.0411 24.6563 12.4577 24.4158 10.9053L24.4199 10.9063Z" fill="#041C3F"/>
</svg>
