<svg width="17" height="22" viewBox="0 0 17 22" fill="none" xmlns="http://www.w3.org/2000/svg">
<path d="M11.8606 16.3826V19.683L13.4419 20.3411V15.5178C12.9452 15.8584 12.4154 16.1482 11.8606 16.3826ZM3.31989 15.5178V20.3082L4.90112 19.6501V16.3826C4.34634 16.1482 3.81658 15.8584 3.31989 15.5178ZM8.38086 17.0848C7.63419 17.0852 6.89039 16.9922 6.16677 16.8082V21.7892L8.38086 20.8678L10.5949 21.7892V16.8082C9.87132 16.9922 9.12753 17.0852 8.38086 17.0848ZM8.38086 0.399109C4.12958 0.399109 0.670898 3.85779 0.670898 8.10911C0.670898 12.3604 4.12958 15.8191 8.38086 15.8191C12.6321 15.8191 16.0909 12.3604 16.0909 8.10907C16.0909 3.85774 12.6322 0.399109 8.38086 0.399109ZM8.38086 14.1899C5.01054 14.1899 2.26855 11.4479 2.26855 8.07757C2.26855 4.70721 5.01054 1.96522 8.38086 1.96522C11.7512 1.96522 14.4932 4.70721 14.4932 8.07757C14.4932 11.4479 11.7512 14.1899 8.38086 14.1899ZM8.38086 3.23087C5.70843 3.23087 3.5342 5.40506 3.5342 8.07757C3.5342 10.7501 5.70843 12.9242 8.38086 12.9242C11.0533 12.9242 13.2275 10.75 13.2275 8.07753C13.2275 5.40506 11.0533 3.23087 8.38086 3.23087ZM10.3729 10.9062L8.38086 9.85892L6.38891 10.9062L6.76933 8.6881L5.1578 7.11727L7.38492 6.79362L8.38086 4.77551L9.37683 6.79362L11.604 7.11727L9.99243 8.6881L10.3729 10.9062Z" fill="#041C3F"/>
</svg>
