<svg width="33" height="33" viewBox="0 0 33 33" fill="none" xmlns="http://www.w3.org/2000/svg">
<path d="M16.5 31C13.3908 31 11.1535 30.9985 9.40906 30.8293C7.68466 30.6621 6.58156 30.3409 5.70123 29.7877C4.69508 29.1556 3.84429 28.3049 3.21207 27.2988C2.65909 26.4184 2.33767 25.3153 2.1707 23.5909C2.00154 21.8465 2 19.6092 2 16.5C2 13.3908 2.00154 11.1535 2.1707 9.40906C2.33767 7.68466 2.65909 6.58156 3.21207 5.70123C3.84426 4.69506 4.69506 3.84426 5.70123 3.21207C6.58156 2.65909 7.68466 2.33767 9.40906 2.1707C11.1532 2.00154 13.3906 2 16.5 2C19.6092 2 21.8465 2.00154 23.5909 2.1707C25.3153 2.33767 26.4184 2.65909 27.2988 3.21207C28.3049 3.84429 29.1556 4.69508 29.7877 5.70123C30.3409 6.58156 30.6621 7.68466 30.8293 9.40906C30.9985 11.1535 31 13.3908 31 16.5C31 19.6092 30.9985 21.8465 30.8293 23.5909C30.6621 25.3153 30.3409 26.4184 29.7877 27.2988C29.1556 28.3048 28.3048 29.1556 27.2988 29.7877C26.4184 30.3409 25.3153 30.6621 23.5909 30.8293C21.8465 30.9985 19.6092 31 16.5 31Z" stroke="#041C3F" stroke-width="3.75"/>
<path d="M16.5 23C20.0899 23 23 20.0899 23 16.5C23 12.9101 20.0899 10 16.5 10C12.9101 10 10 12.9101 10 16.5C10 20.0899 12.9101 23 16.5 23Z" stroke="#041C3F" stroke-width="3.75"/>
<path d="M25 10C26.1046 10 27 9.10457 27 8C27 6.89543 26.1046 6 25 6C23.8954 6 23 6.89543 23 8C23 9.10457 23.8954 10 25 10Z" fill="#041C3F"/>
</svg>
