<svg width="31" height="31" viewBox="0 0 31 31" fill="none" xmlns="http://www.w3.org/2000/svg">
<path fill-rule="evenodd" clip-rule="evenodd" d="M6.2 0C2.77583 0 0 2.77583 0 6.2V24.8C0 28.2241 2.77583 31 6.2 31H24.8C28.2241 31 31 28.2241 31 24.8V6.2C31 2.77583 28.2241 0 24.8 0H6.2ZM3.1 6.2C3.1 4.48792 4.48792 3.1 6.2 3.1H24.8C26.5121 3.1 27.9 4.48792 27.9 6.2V24.8C27.9 26.5121 26.5121 27.9 24.8 27.9H6.2C4.48792 27.9 3.1 26.5121 3.1 24.8V6.2ZM10.85 13.95C10.85 13.0939 10.156 12.4 9.3 12.4C8.44397 12.4 7.75 13.0939 7.75 13.95V23.25C7.75 24.1061 8.44397 24.8 9.3 24.8C10.156 24.8 10.85 24.1061 10.85 23.25V13.95ZM11.625 8.525C11.625 9.80907 10.5841 10.85 9.3 10.85C8.01593 10.85 6.975 9.80907 6.975 8.525C6.975 7.24093 8.01593 6.2 9.3 6.2C10.5841 6.2 11.625 7.24093 11.625 8.525ZM15.5 12.4C16.0262 12.4 16.4912 12.6623 16.7715 13.0632C17.566 12.6328 18.4506 12.4 19.375 12.4C22.7221 12.4 24.8 15.385 24.8 17.9357V17.9475V17.9591V17.9709V17.9826V17.9944V18.0063V18.0181V18.0301V18.042V18.0539V18.066V18.078V18.09V18.1021V18.1142V18.1263V18.1384V18.1507V18.1629V18.175V18.1874V18.1996V18.2119V18.2243V18.2365V18.2489V18.2613V18.2739V18.2863V18.2988V18.3112V18.3238V18.3363V18.3489V18.3616V18.3742V18.3869V18.3994V18.4121V18.4249V18.4377V18.4504V18.4631V18.476V18.4889V18.5016V18.5144V18.5275V18.5403V18.5532V18.5662V18.5792V18.5921V18.6051V18.6181V18.6312V18.6443V18.6573V18.6705V18.6835V18.6967V18.7099V18.7231V18.7362V18.7494V18.7626V18.7759V18.7891V18.8024V18.8158V18.8291V18.8423V18.8557V18.8691V18.8824V18.8957V18.9092V18.9226V18.936V18.9494V18.9629V18.9763V18.9898V19.0033V19.0168V19.0303V19.0439V19.0574V19.071V19.0845V19.0982V19.1117V19.1253V19.1389V19.1526V19.1662V19.1799V19.1935V19.2071V19.2208V19.2344V19.2482V19.2619V19.2756V19.2893V19.3031V19.3167V19.3305V19.3443V19.3581V19.3717V19.3855V19.3993V19.4131V19.4269V19.4407V19.4545V19.4683V19.4823V19.4961V19.5098V19.5236V19.5376V19.5514V19.5652V19.5791V19.5929V19.6069V19.6207V19.6345V19.6484V19.6624V19.6762V19.6901V19.7039V19.7179V19.7318V19.7456V19.7596V19.7733V19.7873V19.8012V19.815V19.829V19.8429V19.8567V19.8707V19.8846V19.8986V19.9124V19.9263V19.9403V19.9541V19.968V19.982V19.9958V20.0097V20.0235V20.0375V20.0513V20.0652V20.0792V20.093V20.1069V20.1207V20.1345V20.1484V20.1622V20.1762V20.19V20.2038V20.2176V20.2315V20.2453V20.2591V20.2729V20.2867V20.3005V20.3143V20.3281V20.3419V20.3557V20.3695V20.3831V20.3969V20.4107V20.4243V20.4381V20.4518V20.4656V20.4792V20.493V20.5067V20.5203V20.5339V20.5476V20.5612V20.5749V20.5885V20.6021V20.6158V20.6293V20.6429V20.6564V20.67V20.6835V20.697V20.7105V20.724V20.7374V20.7509V20.7644V20.7779V20.7914V20.8047V20.8182V20.8315V20.8449V20.8583V20.8717V20.885V20.8982V20.9115V20.9248V20.9382V20.9513V20.9645V20.9779V20.991V21.0042V21.0174V21.0306V21.0436V21.0567V21.0698V21.0829V21.096V21.109V21.122V21.135V21.148V21.1609V21.1739V21.1868V21.1997V21.2125V21.2254V21.2383V21.2511V21.2638V21.2767V21.2894V21.3021V21.3148V21.3275V21.3402V21.3528V21.3655V21.3781V21.3906V21.4032V21.4157V21.4281V21.4407V21.4531V21.4655V21.4779V21.4903V21.5027V21.5149V21.5272V21.5396V21.5518V21.5639V21.5762V21.5884V21.6005V21.6126V21.6247V21.6368V21.6487V21.6608V21.6727V21.6847V21.6966V21.7085V21.7203V21.7322V21.744V21.7558V21.7674V21.7792V21.7908V21.8025V21.8141V21.8257V21.8373V21.8488V21.8603V21.8717V21.8832V21.8945V21.906V21.9173V21.9286V21.9398V21.9511V21.9623V21.9734V21.9846V21.9957V22.0067V22.0177V22.0288V22.0398V22.0506V22.0615V22.0723V22.0832V22.094V22.1047V22.1154V22.1261V22.1368V22.1473V22.1579V22.1684V22.1789V22.1893V22.1997V22.2101V22.2205V22.2309V22.2411V22.2513V22.2614V22.2716V22.2817V22.2918V22.3017V22.3118V22.3217V22.3316V22.3414V22.3513V22.3611V22.3708V22.3804V22.3901V22.3997V22.4093V22.4189V22.4283V22.4378V22.4471V22.4566V22.4659V22.475V22.4843V22.4934V22.5026V22.5117V22.5207V22.5297V22.5387V22.5475V22.5564V22.5652V22.574V22.5827V22.5914V22.6001V22.6086V22.6171V22.6257V22.634V22.6426V22.6508V22.6591V22.6674V22.6756V22.6838V22.6918V22.6999V22.708V22.7159V22.7238V22.7317V22.7394V22.7472V22.7549V22.7625V22.7701V22.7777V22.7852V22.7926V22.8V22.8073V22.8146V22.8219V22.829V22.8361V22.8433V22.8503V22.8572V22.8642V22.871V22.8778V22.8847V22.8913V22.898V22.9045V22.911V22.9175V22.924V22.9304V22.9366V22.9429V22.9491V22.9552V22.9614V22.9674V22.9733V22.9792V22.9851V22.9908V22.9966V23.0023V23.0079V23.0135V23.019V23.0245V23.0299V23.0352V23.0404V23.0457V23.0508V23.0559V23.0609V23.0659V23.0708V23.0756V23.0804V23.0851V23.0897V23.0944V23.0989V23.1034V23.1079V23.1122V23.1164V23.1206V23.1248V23.1289V23.133V23.1368V23.1407V23.1446V23.1483V23.152V23.1558V23.1593V23.1629V23.1663V23.1696V23.173V23.1762V23.1793V23.1824V23.1855V23.1885V23.1914V23.1942V23.197V23.1998V23.2024V23.2049V23.2074V23.2099V23.2122V23.2145V23.2167V23.2188V23.221V23.223V23.2249V23.2267V23.2286V23.2303V23.232V23.2336V23.2365V23.2391V23.2416V23.2436V23.2455V23.2475V23.2494C24.8 24.1054 24.1061 24.8 23.25 24.8C22.3939 24.8 21.7 24.1061 21.7 23.25V23.2481V23.2463V23.2446V23.2427V23.2404V23.2379V23.2351V23.232V23.2303V23.2286V23.2267V23.2249V23.223V23.221V23.2188V23.2167V23.2145V23.2122V23.2099V23.2074V23.2049V23.2024V23.1998V23.197V23.1942V23.1914V23.1885V23.1855V23.1824V23.1793V23.1762V23.173V23.1696V23.1663V23.1629V23.1593V23.1558V23.152V23.1483V23.1446V23.1407V23.1368V23.133V23.1289V23.1248V23.1206V23.1164V23.1122V23.1079V23.1034V23.0989V23.0944V23.0897V23.0851V23.0804V23.0756V23.0708V23.0659V23.0609V23.0559V23.0508V23.0457V23.0404V23.0352V23.0299V23.0245V23.019V23.0135V23.0079V23.0023V22.9966V22.9908V22.9851V22.9792V22.9733V22.9674V22.9614V22.9552V22.9491V22.9429V22.9366V22.9304V22.924V22.9175V22.911V22.9045V22.898V22.8913V22.8847V22.8778V22.871V22.8642V22.8572V22.8503V22.8433V22.8361V22.829V22.8219V22.8146V22.8073V22.8V22.7926V22.7852V22.7777V22.7701V22.7625V22.7549V22.7472V22.7394V22.7317V22.7238V22.7159V22.708V22.6999V22.6918V22.6838V22.6756V22.6674V22.6591V22.6508V22.6426V22.634V22.6257V22.6171V22.6086V22.6001V22.5914V22.5827V22.574V22.5652V22.5564V22.5475V22.5387V22.5297V22.5207V22.5117V22.5026V22.4934V22.4843V22.475V22.4659V22.4566V22.4471V22.4378V22.4283V22.4189V22.4093V22.3997V22.3901V22.3804V22.3708V22.3611V22.3513V22.3414V22.3316V22.3217V22.3118V22.3017V22.2918V22.2817V22.2716V22.2614V22.2513V22.2411V22.2309V22.2205V22.2101V22.1997V22.1893V22.1789V22.1684V22.1579V22.1473V22.1368V22.1261V22.1154V22.1047V22.094V22.0832V22.0723V22.0615V22.0506V22.0398V22.0288V22.0177V22.0067V21.9957V21.9846V21.9734V21.9623V21.9511V21.9398V21.9286V21.9173V21.906V21.8945V21.8832V21.8717V21.8603V21.8488V21.8373V21.8257V21.8141V21.8025V21.7908V21.7792V21.7674V21.7558V21.744V21.7322V21.7203V21.7085V21.6966V21.6847V21.6727V21.6608V21.6487V21.6368V21.6247V21.6126V21.6005V21.5884V21.5762V21.5639V21.5518V21.5396V21.5272V21.5149V21.5027V21.4903V21.4779V21.4655V21.4531V21.4407V21.4281V21.4157V21.4032V21.3906V21.3781V21.3655V21.3528V21.3402V21.3275V21.3148V21.3021V21.2894V21.2767V21.2638V21.2511V21.2383V21.2254V21.2125V21.1997V21.1868V21.1739V21.1609V21.148V21.135V21.122V21.109V21.096V21.0829V21.0698V21.0567V21.0436V21.0306V21.0174V21.0042V20.991V20.9779V20.9645V20.9513V20.9382V20.9248V20.9115V20.8982V20.885V20.8717V20.8583V20.8449V20.8315V20.8182V20.8047V20.7914V20.7779V20.7644V20.7509V20.7374V20.724V20.7105V20.697V20.6835V20.67V20.6564V20.6429V20.6293V20.6158V20.6021V20.5885V20.5749V20.5612V20.5476V20.5339V20.5203V20.5067V20.493V20.4792V20.4656V20.4518V20.4381V20.4243V20.4107V20.3969V20.3831V20.3695V20.3557V20.3419V20.3281V20.3143V20.3005V20.2867V20.2729V20.2591V20.2453V20.2315V20.2176V20.2038V20.19V20.1762V20.1622V20.1484V20.1345V20.1207V20.1069V20.093V20.0792V20.0652V20.0513V20.0375V20.0235V20.0097V19.9958V19.982V19.968V19.9541V19.9403V19.9263V19.9124V19.8986V19.8846V19.8707V19.8567V19.8429V19.829V19.815V19.8012V19.7873V19.7733V19.7596V19.7456V19.7318V19.7179V19.7039V19.6901V19.6762V19.6624V19.6484V19.6345V19.6207V19.6069V19.5929V19.5791V19.5652V19.5514V19.5376V19.5236V19.5098V19.4961V19.4823V19.4683V19.4545V19.4407V19.4269V19.4131V19.3993V19.3855V19.3717V19.3581V19.3443V19.3305V19.3167V19.3031V19.2893V19.2756V19.2619V19.2482V19.2344V19.2208V19.2071V19.1935V19.1799V19.1662V19.1526V19.1389V19.1253V19.1117V19.0982V19.0845V19.071V19.0574V19.0439V19.0303V19.0168V19.0033V18.9898V18.9763V18.9629V18.9494V18.936V18.9226V18.9092V18.8957V18.8824V18.8691V18.8557V18.8423V18.8291V18.8158V18.8024V18.7891V18.7759V18.7626V18.7494V18.7362V18.7231V18.7099V18.6967V18.6835V18.6705V18.6573V18.6443V18.6312V18.6181V18.6051V18.5921V18.5792V18.5662V18.5532V18.5403V18.5275V18.5144V18.5016V18.4889V18.476V18.4631V18.4504V18.4377V18.4249V18.4121V18.3994V18.3869V18.3742V18.3616V18.3489V18.3363V18.3238V18.3112V18.2988V18.2863V18.2739V18.2613V18.2489V18.2365V18.2243V18.2119V18.1996V18.1874V18.175V18.1629V18.1507V18.1384V18.1263V18.1142V18.1021V18.09V18.078V18.066V18.0539V18.042V18.0301V18.0181V18.0063V17.9944V17.9826V17.9709V17.9591V17.9475V17.9357C21.7 16.745 20.6779 15.5 19.375 15.5C18.5626 15.5 17.666 15.9416 17.05 16.9928V16.997V17.013V17.0289V17.0449V17.061V17.077V17.0931V17.1092V17.1255V17.1416V17.1577V17.174V17.1903V17.2065V17.2228V17.2391V17.2555V17.272V17.2882V17.3047V17.3211V17.3375V17.3541V17.3705V17.3871V17.4037V17.4201V17.4369V17.4535V17.47V17.4866V17.5034V17.5201V17.5367V17.5534V17.5702V17.5869V17.6038V17.6206V17.6374V17.6542V17.6711V17.688V17.7049V17.7218V17.7387V17.7556V17.7726V17.7895V17.8066V17.8234V17.8405V17.8575V17.8746V17.8916V17.9087V17.9257V17.943V17.96V17.9771V17.9943V18.0115V18.0285V18.0457V18.0629V18.0801V18.0973V18.1145V18.1317V18.1489V18.1663V18.1835V18.2007V18.2181V18.2353V18.2526V18.27V18.2872V18.3046V18.3219V18.3393V18.3565V18.3739V18.3912V18.4086V18.4261V18.4434V18.4608V18.4782V18.4955V18.5129V18.5304V18.5478V18.5651V18.5826V18.6V18.6175V18.6349V18.6524V18.6698V18.6871V18.7046V18.7221V18.7395V18.757V18.7744V18.7919V18.8092V18.8268V18.8443V18.8616V18.8792V18.8965V18.914V18.9315V18.9489V18.9664V18.9838V19.0013V19.0187V19.0362V19.0535V19.071V19.0884V19.1059V19.1233V19.1408V19.1582V19.1757V19.193V19.2104V19.2277V19.2453V19.2626V19.28V19.2973V19.3147V19.3321V19.3494V19.3668V19.3841V19.4015V19.4189V19.4362V19.4534V19.4708V19.4881V19.5054V19.5227V19.5399V19.5573V19.5745V19.5917V19.6089V19.6261V19.6435V19.6607V19.6777V19.6949V19.7121V19.7293V19.7464V19.7636V19.7806V19.7978V19.8149V19.8319V19.849V19.866V19.8831V19.9001V19.9172V19.9341V19.9511V19.968V19.9851V20.002V20.0189V20.0358V20.0527V20.0696V20.0863V20.1032V20.1199V20.1368V20.1536V20.1703V20.187V20.2038V20.2205V20.2371V20.2538V20.2704V20.287V20.3036V20.3202V20.3368V20.3534V20.3699V20.3864V20.4028V20.4192V20.4357V20.4521V20.4685V20.485V20.5012V20.5175V20.5338V20.5501V20.5663V20.5826V20.5987V20.6148V20.6311V20.6472V20.6632V20.6793V20.6954V20.7114V20.7274V20.7433V20.7593V20.7751V20.7911V20.8069V20.8227V20.8385V20.8543V20.87V20.8858V20.9014V20.9171V20.9326V20.9482V20.9637V20.9792V20.9947V21.0103V21.0257V21.0411V21.0564V21.0718V21.0871V21.1023V21.1177V21.1329V21.148V21.1631V21.1783V21.1933V21.2083V21.2234V21.2383V21.2533V21.2682V21.283V21.2978V21.3127V21.3274V21.3421V21.3568V21.3714V21.386V21.4005V21.4151V21.4297V21.4441V21.4585V21.4728V21.4872V21.5014V21.5157V21.53V21.5441V21.5583V21.5724V21.5864V21.6005V21.6144V21.6284V21.6422V21.6561V21.6699V21.6837V21.6974V21.711V21.7246V21.7383V21.7518V21.7653V21.7787V21.7922V21.8056V21.8189V21.8322V21.8454V21.8586V21.8717V21.8849V21.8979V21.911V21.9238V21.9367V21.9495V21.9624V21.9753V21.988V22.0005V22.0133V22.0258V22.0384V22.0508V22.0632V22.0756V22.088V22.1002V22.1125V22.1245V22.1366V22.1487V22.1608V22.1728V22.1847V22.1965V22.2084V22.2202V22.2318V22.2434V22.2551V22.2667V22.2781V22.2895V22.3009V22.3123V22.3236V22.3347V22.3459V22.357V22.368V22.3791V22.3899V22.4009V22.4116V22.4225V22.4331V22.4438V22.4544V22.4649V22.4753V22.4858V22.4962V22.5065V22.5167V22.5269V22.537V22.5471V22.557V22.5669V22.5768V22.5868V22.5964V22.6061V22.6157V22.6253V22.6348V22.6443V22.6537V22.663V22.6722V22.6815V22.6906V22.6996V22.7086V22.7176V22.7264V22.7352V22.7439V22.7526V22.7613V22.7698V22.7782V22.7867V22.7949V22.8033V22.8115V22.8196V22.8276V22.8357V22.8436V22.8515V22.8592V22.867V22.8746V22.8822V22.8898V22.8972V22.9047V22.9119V22.9191V22.9264V22.9333V22.9405V22.9474V22.9543V22.9611V22.9677V22.9744V22.9811V22.9876V22.9939V23.0005V23.0066V23.0128V23.019V23.0251V23.0311V23.037V23.0429V23.0487V23.0544V23.06V23.0655V23.071V23.0764V23.0817V23.0869V23.0921V23.0972V23.1021V23.1071V23.1119V23.1167V23.1213V23.126V23.1305V23.135V23.1393V23.1435V23.1479V23.1519V23.1559V23.1599V23.1638V23.1675V23.1713V23.175V23.1785V23.182V23.1854V23.1886V23.1919V23.195V23.1981V23.201V23.204V23.2068V23.2094V23.212V23.2145V23.217V23.2195V23.2216V23.2238V23.226V23.228V23.23V23.2319V23.2336V23.2353V23.2368V23.2398V23.2423V23.2444V23.2463V23.2483V23.2498C17.05 24.1059 16.3561 24.8 15.5 24.8C14.6439 24.8 13.95 24.1061 13.95 23.25V23.2483V23.2463V23.2444V23.2423V23.2398V23.2368V23.2353V23.2336V23.2319V23.23V23.228V23.226V23.2238V23.2216V23.2195V23.217V23.2145V23.212V23.2094V23.2068V23.204V23.201V23.1981V23.195V23.1919V23.1886V23.1854V23.182V23.1785V23.175V23.1713V23.1675V23.1638V23.1599V23.1559V23.1519V23.1479V23.1435V23.1393V23.135V23.1305V23.126V23.1213V23.1167V23.1119V23.1071V23.1021V23.0972V23.0921V23.0869V23.0817V23.0764V23.071V23.0655V23.06V23.0544V23.0487V23.0429V23.037V23.0311V23.0251V23.019V23.0128V23.0066V23.0005V22.9939V22.9876V22.9811V22.9744V22.9677V22.9611V22.9543V22.9474V22.9405V22.9333V22.9264V22.9191V22.9119V22.9047V22.8972V22.8898V22.8822V22.8746V22.867V22.8592V22.8515V22.8436V22.8357V22.8276V22.8196V22.8115V22.8033V22.7949V22.7867V22.7782V22.7698V22.7613V22.7526V22.7439V22.7352V22.7264V22.7176V22.7086V22.6996V22.6906V22.6815V22.6722V22.663V22.6537V22.6443V22.6348V22.6253V22.6157V22.6061V22.5964V22.5868V22.5768V22.5669V22.557V22.5471V22.537V22.5269V22.5167V22.5065V22.4962V22.4858V22.4753V22.4649V22.4544V22.4438V22.4331V22.4225V22.4116V22.4009V22.3899V22.3791V22.368V22.357V22.3459V22.3347V22.3236V22.3123V22.3009V22.2895V22.2781V22.2667V22.2551V22.2434V22.2318V22.2202V22.2084V22.1965V22.1847V22.1728V22.1608V22.1487V22.1366V22.1245V22.1125V22.1002V22.088V22.0756V22.0632V22.0508V22.0384V22.0258V22.0133V22.0005V21.988V21.9753V21.9624V21.9495V21.9367V21.9238V21.911V21.8979V21.8849V21.8717V21.8586V21.8454V21.8322V21.8189V21.8056V21.7922V21.7787V21.7653V21.7518V21.7383V21.7246V21.711V21.6974V21.6837V21.6699V21.6561V21.6422V21.6284V21.6144V21.6005V21.5864V21.5724V21.5583V21.5441V21.53V21.5157V21.5014V21.4872V21.4728V21.4585V21.4441V21.4297V21.4151V21.4005V21.386V21.3714V21.3568V21.3421V21.3274V21.3127V21.2978V21.283V21.2682V21.2533V21.2383V21.2234V21.2083V21.1933V21.1783V21.1631V21.148V21.1329V21.1177V21.1023V21.0871V21.0718V21.0564V21.0411V21.0257V21.0103V20.9947V20.9792V20.9637V20.9482V20.9326V20.9171V20.9014V20.8858V20.87V20.8543V20.8385V20.8227V20.8069V20.7911V20.7751V20.7593V20.7433V20.7274V20.7114V20.6954V20.6793V20.6632V20.6472V20.6311V20.6148V20.5987V20.5826V20.5663V20.5501V20.5338V20.5175V20.5012V20.485V20.4685V20.4521V20.4357V20.4192V20.4028V20.3864V20.3699V20.3534V20.3368V20.3202V20.3036V20.287V20.2704V20.2538V20.2371V20.2205V20.2038V20.187V20.1703V20.1536V20.1368V20.1199V20.1032V20.0863V20.0696V20.0527V20.0358V20.0189V20.002V19.9851V19.968V19.9511V19.9341V19.9172V19.9001V19.8831V19.866V19.849V19.8319V19.8149V19.7978V19.7806V19.7636V19.7464V19.7293V19.7121V19.6949V19.6777V19.6607V19.6435V19.6261V19.6089V19.5917V19.5745V19.5573V19.5399V19.5227V19.5054V19.4881V19.4708V19.4534V19.4362V19.4189V19.4015V19.3841V19.3668V19.3494V19.3321V19.3147V19.2973V19.28V19.2626V19.2453V19.2277V19.2104V19.193V19.1757V19.1582V19.1408V19.1233V19.1059V19.0884V19.071V19.0535V19.0362V19.0187V19.0013V18.9838V18.9664V18.9489V18.9315V18.914V18.8965V18.8792V18.8616V18.8443V18.8268V18.8092V18.7919V18.7744V18.757V18.7395V18.7221V18.7046V18.6871V18.6698V18.6524V18.6349V18.6175V18.6V18.5826V18.5651V18.5478V18.5304V18.5129V18.4955V18.4782V18.4608V18.4434V18.4261V18.4086V18.3912V18.3739V18.3565V18.3393V18.3219V18.3046V18.2872V18.27V18.2526V18.2353V18.2181V18.2007V18.1835V18.1663V18.1489V18.1317V18.1145V18.0973V18.0801V18.0629V18.0457V18.0285V18.0115V17.9943V17.9771V17.96V17.943V17.9257V17.9087V17.8916V17.8746V17.8575V17.8405V17.8234V17.8066V17.7895V17.7726V17.7556V17.7387V17.7218V17.7049V17.688V17.6711V17.6542V17.6374V17.6206V17.6038V17.5869V17.5702V17.5534V17.5367V17.5201V17.5034V17.4866V17.47V17.4535V17.4369V17.4201V17.4037V17.3871V17.3705V17.3541V17.3375V17.3211V17.3047V17.2882V17.272V17.2555V17.2391V17.2228V17.2065V17.1903V17.174V17.1577V17.1416V17.1255V17.1092V17.0931V17.077V17.061V17.0449V17.0289V17.013V16.997V16.981V16.9651V16.9491V16.9333V16.9175V16.9017V16.8859V16.8702V16.8544V16.8387V16.8231V16.8074V16.7919V16.7763V16.7608V16.7453V16.7298V16.7143V16.6989V16.6836V16.6682V16.6529V16.6375V16.6224V16.6072V16.6011V16.5949V16.5889V16.5827V16.5766V16.5704V16.5642V16.558V16.5518V16.5456V16.5394V16.5332V16.527V16.5208V16.5145V16.5083V16.5019V16.4956V16.4894V16.483V16.4767V16.4703V16.4639V16.4576V16.4512V16.4449V16.4385V16.432V16.4257V16.4191V16.4128V16.4063V16.3998V16.3934V16.3869V16.3804V16.3739V16.3674V16.3609V16.3544V16.3478V16.3412V16.3347V16.3282V16.3215V16.315V16.3083V16.3018V16.2951V16.2885V16.282V16.2753V16.2686V16.262V16.2553V16.2486V16.242V16.2353V16.2287V16.2218V16.2152V16.2085V16.2018V16.195V16.1884V16.1815V16.1749V16.168V16.1612V16.1546V16.1477V16.1409V16.1343V16.1274V16.1206V16.1138V16.107V16.1002V16.0933V16.0865V16.0797V16.0729V16.0661V16.0591V16.0523V16.0454V16.0386V16.0317V16.0248V16.018V16.011V16.0042V15.9972V15.9904V15.9834V15.9766V15.9697V15.9628V15.9559V15.9489V15.9421V15.9351V15.9281V15.9213V15.9143V15.9073V15.9004V15.8935V15.8866V15.8796V15.8726V15.8656V15.8587V15.8518V15.8449V15.8379V15.8309V15.8239V15.817V15.81V15.803V15.796V15.7891V15.7821V15.7751V15.7682V15.7612V15.7542V15.7472V15.7402V15.7333V15.7263V15.7193V15.7123V15.7054V15.6984V15.6914V15.6845V15.6775V15.6705V15.6635V15.6564V15.6494V15.6424V15.6355V15.6285V15.6215V15.6145V15.6076V15.6006V15.5936V15.5868V15.5798V15.5728V15.5659V15.5589V15.5519V15.5449V15.538V15.531V15.524V15.5172V15.5102V15.5033V15.4963V15.4895V15.4825V15.4755V15.4685V15.4617V15.4547V15.4478V15.4409V15.434V15.4271V15.4202V15.4134V15.4064V15.3996V15.3926V15.3858V15.3789V15.372V15.3651V15.3583V15.3514V15.3445V15.3377V15.3309V15.3241V15.3173V15.3104V15.3036V15.2968V15.29V15.2832V15.2763V15.2695V15.2628V15.256V15.2492V15.2424V15.2357V15.2289V15.2222V15.2154V15.2088V15.2019V15.1953V15.1886V15.1819V15.1751V15.1685V15.1618V15.1551V15.1485V15.1418V15.1351V15.1285V15.122V15.1153V15.1086V15.1021V15.0955V15.0888V15.0823V15.0758V15.0691V15.0626V15.0561V15.0496V15.0431V15.0364V15.0299V15.0235V15.017V15.0105V15.004V14.9976V14.9911V14.9846V14.9783V14.9719V14.9654V14.959V14.9527V14.9463V14.94V14.9336V14.9273V14.9209V14.9146V14.9084V14.902V14.8957V14.8895V14.8833V14.8769V14.8707V14.8645V14.8583V14.8521V14.8459V14.8397V14.8335V14.8275V14.8213V14.8152V14.809V14.803V14.7969V14.7907V14.7847V14.7786V14.7727V14.7667V14.7606V14.7546V14.7487V14.7427V14.7368V14.7309V14.725V14.7191V14.7132V14.7073V14.7014V14.6955V14.6898V14.6839V14.6782V14.6725V14.6666V14.6608V14.6551V14.6494V14.6438V14.638V14.6323V14.6267V14.621V14.6154V14.6098V14.6043V14.5987V14.5931V14.5875V14.5821V14.5765V14.5711V14.5655V14.5601V14.5547V14.5492V14.5438V14.5385V14.5331V14.5278V14.5224V14.5171V14.5119V14.5066V14.5013V14.4961V14.4908V14.4857V14.4804V14.4753V14.4702V14.4651V14.46V14.4548V14.4497V14.4448V14.4396V14.4347V14.4297V14.4248V14.4198V14.4148V14.4099V14.4051V14.4001V14.3953V14.3905V14.3857V14.3809V14.3761V14.3714V14.3666V14.362V14.3573V14.3527V14.348V14.3434V14.3387V14.3342V14.3296V14.3251V14.3206V14.3161V14.3116V14.3073V14.3028V14.2984V14.2939V14.2896V14.2853V14.2811V14.2767V14.2726V14.2682V14.264V14.2598V14.2557V14.2515V14.2474V14.2433V14.2392V14.2352V14.2312V14.2271V14.2233V14.2192V14.2154V14.2115V14.2076V14.2037V14.1999V14.1961V14.1923V14.1885V14.1848V14.1811V14.1774V14.1738V14.1701V14.1665V14.163V14.1594V14.156V14.1524V14.149V14.1455V14.142V14.1386V14.1354V14.132V14.1287V14.1255V14.1222V14.1189V14.1157V14.1126V14.1093V14.1062V14.1031V14.1002V14.0971V14.0942V14.091V14.0881V14.0853V14.0824V14.0794V14.0766V14.0738V14.0711V14.0683V14.0656V14.0628V14.0602V14.0576V14.0549V14.0525V14.0498V14.0473V14.0449V14.0424V14.0399V14.0376V14.0352V14.0329V14.0306V14.0283V14.0259V14.0238V14.0216V14.0194V14.0173V14.0153V14.0132V14.0111V14.0092V14.0072V14.0052V14.0033V14.0015V13.9996V13.9977V13.996V13.9943V13.9926V13.9909V13.9892V13.9877V13.986V13.9844V13.9815V13.9787V13.9759V13.9733V13.9708V13.9684V13.9663V13.9641V13.9622V13.9604V13.9581V13.9565V13.9546V13.9531V13.9512C13.95 13.0952 14.6439 12.4 15.5 12.4Z" fill="#041C3F"/>
</svg>
