<svg width="14" height="18" viewBox="0 0 14 18" fill="none" xmlns="http://www.w3.org/2000/svg">
<path d="M6.53067 0C2.93059 0 1.57087e-06 2.9306 0 6.53067C-2.24409e-06 12.8652 6.16249 17.681 6.16249 17.681C6.26769 17.7649 6.39828 17.8106 6.53286 17.8106C6.66744 17.8106 6.79802 17.7649 6.90322 17.681C6.90322 17.681 13.0657 12.8652 13.0657 6.53067C13.0657 2.9306 10.1307 0 6.53067 0ZM6.53067 1.18779C9.48897 1.18779 11.8779 3.57237 11.8779 6.53067C11.8779 11.7129 7.18538 15.8072 6.53505 16.3617C5.88782 15.8099 1.18779 11.7149 1.18779 6.53067C1.18779 3.57237 3.57236 1.18779 6.53067 1.18779Z" fill="white"/>
<path d="M6.53064 3.56348C4.89808 3.56348 3.56336 4.89821 3.56335 6.53077C3.56334 8.16334 4.89807 9.50244 6.53064 9.50244C8.16321 9.50244 9.50233 8.16334 9.50232 6.53077C9.50231 4.89821 8.1632 3.56348 6.53064 3.56348ZM6.53064 4.75127C7.52143 4.75127 8.31452 5.53998 8.31452 6.53077C8.31453 7.52156 7.52144 8.31465 6.53064 8.31465C5.53985 8.31465 4.75114 7.52156 4.75115 6.53077C4.75115 5.53998 5.53986 4.75127 6.53064 4.75127Z" fill="white"/>
</svg>
