<svg xmlns="http://www.w3.org/2000/svg" width="12.505" height="15.632" viewBox="0 0 12.505 15.632">
  <path id="Path_113" data-name="Path 113" d="M94.5,57.333h-9.77a1.374,1.374,0,0,1-1.368-1.368V43.07A1.374,1.374,0,0,1,84.729,41.7H94.5a1.374,1.374,0,0,1,1.368,1.368v12.9A1.374,1.374,0,0,1,94.5,57.333Zm-9.77-14.459a.193.193,0,0,0-.2.2v12.9a.193.193,0,0,0,.2.2H94.5a.193.193,0,0,0,.2-.2V43.07a.193.193,0,0,0-.2-.2h-9.77Z" transform="translate(-83.361 -41.702)" fill="#262626"/>
  <path id="Path_114" data-name="Path 114" d="M149.571,108.5h-3.134a.59.59,0,0,1-.586-.586v-3.134a.59.59,0,0,1,.586-.586h3.134a.59.59,0,0,1,.586.586v3.134A.59.59,0,0,1,149.571,108.5Zm-2.548-1.172h1.962v-1.962h-1.962Zm6.057,3.509h-6.643a.586.586,0,0,1,0-1.172h6.643a.586.586,0,1,1,0,1.172Zm0,2.157h-6.643a.586.586,0,0,1,0-1.172h6.643a.586.586,0,1,1,0,1.172Zm-3.517,2.141h-3.126a.586.586,0,1,1,0-1.172h3.126a.586.586,0,1,1,0,1.172Z" transform="translate(-143.506 -101.847)" fill="#262626"/>
</svg>
