<svg width="17" height="17" viewBox="0 0 17 17" fill="none" xmlns="http://www.w3.org/2000/svg">
<path fill-rule="evenodd" clip-rule="evenodd" d="M12.4034 16.4068C10.8042 16.0062 7.53025 14.8765 4.56218 11.9085C1.59413 8.94047 0.464542 5.66653 0.0638562 4.06729C-0.166408 3.14823 0.248243 2.26137 0.95133 1.75916L2.79453 0.442586C3.873 -0.327745 5.37329 -0.0663445 6.12768 1.02334L7.28808 2.69949C7.78065 3.411 7.61076 4.38617 6.90657 4.88916L5.9813 5.55007C6.12134 6.08572 6.55688 7.18574 7.92093 8.54978C9.28498 9.91383 10.385 10.3493 10.9206 10.4894L11.5815 9.56407C12.0845 8.85996 13.0597 8.68999 13.7712 9.18256L15.4474 10.343C16.537 11.0974 16.7984 12.5977 16.0281 13.6761L14.7115 15.5194C14.2093 16.2225 13.3225 16.6371 12.4034 16.4068ZM5.68176 10.7889C8.38089 13.488 11.3595 14.513 12.7882 14.871C12.997 14.9233 13.2495 14.8421 13.4231 14.5991L14.7397 12.7558C14.9965 12.3964 14.9094 11.8963 14.5461 11.6448L12.87 10.4844L12.1607 11.4774C11.8709 11.8832 11.3348 12.2014 10.7107 12.0668C9.93169 11.8987 8.49165 11.3596 6.80136 9.66936C5.11107 7.97907 4.57202 6.53903 4.40393 5.76003C4.26927 5.13588 4.58755 4.59985 4.99334 4.31L5.98629 3.60074L4.82587 1.92459C4.57441 1.56135 4.07431 1.47422 3.71482 1.731L1.87163 3.04757C1.62855 3.22119 1.5474 3.47366 1.59972 3.68248C1.9577 5.11124 2.98267 8.08983 5.68176 10.7889Z" fill="white"/>
</svg>
