<svg xmlns="http://www.w3.org/2000/svg" width="18.005" height="18.002" viewBox="0 0 18.005 18.002">
  <path id="Path_69" data-name="Path 69" d="M56.86,44.127a9,9,0,1,0-6.219,15.516h.225A9,9,0,0,0,56.86,44.127ZM50.839,58.293A7.535,7.535,0,0,1,45.9,56.628,2.93,2.93,0,0,1,48.634,54.7h4.05a2.935,2.935,0,0,1,2.736,1.917A7.625,7.625,0,0,1,50.839,58.293Zm5.6-2.655a4.285,4.285,0,0,0-3.762-2.286h-4.05a4.266,4.266,0,0,0-3.762,2.3A7.647,7.647,0,0,1,50.47,43h.189a7.636,7.636,0,0,1,5.778,12.636Z" transform="translate(-41.648 -41.641)" fill="#262626"/>
  <path id="Path_70" data-name="Path 70" d="M180.472,104.185h-.45a2.931,2.931,0,0,0-2.925,2.925v1.8a2.931,2.931,0,0,0,2.925,2.925h2.7a.68.68,0,0,0,.675-.675v-4.05a2.931,2.931,0,0,0-2.925-2.925Zm1.575,6.3c-.506.844-2.025,0-2.025,0a1.583,1.583,0,0,1-1.575-1.575v-1.8a1.583,1.583,0,0,1,1.575-1.575h.45a1.577,1.577,0,0,1,1.575,1.575S182.553,109.641,182.047,110.485Z" transform="translate(-171.245 -101.483)" fill="#262626"/>
</svg>
