<svg width="29" height="18" viewBox="0 0 29 18" fill="none" xmlns="http://www.w3.org/2000/svg">
<path d="M10.366 14.2372H18.3042C18.5325 14.2372 18.7515 14.1465 18.913 13.985C19.0744 13.8236 19.1651 13.6046 19.1651 13.3762L22.1631 2.3991C22.1631 2.28517 22.1405 2.17237 22.0966 2.06724C22.0527 1.96211 21.9884 1.86674 21.9073 1.78666C21.8263 1.70658 21.7302 1.64338 21.6245 1.60072C21.5189 1.55806 21.4058 1.53679 21.2919 1.53815H8.28024C8.05143 1.53814 7.83191 1.62869 7.66964 1.79C7.50736 1.95131 7.41552 2.17029 7.41417 2.3991L4.85181 13.3762C4.85181 13.6046 4.94251 13.8236 5.10397 13.985C5.26543 14.1465 5.48442 14.2372 5.71276 14.2372H6.82995" stroke="#041C3F" stroke-width="1.42601"/>
<path d="M20.6052 14.2372H18.8269L21.3893 5.37659H25.6018C25.6651 5.37644 25.7278 5.39013 25.7853 5.41668C25.8428 5.44323 25.8939 5.48202 25.9349 5.53033L27.7695 8.7589C27.8353 8.83415 27.8717 8.93059 27.872 9.03051L26.1655 14.2372H24.3206" stroke="#041C3F" stroke-width="1.42601"/>
<path d="M8.63882 16.7227C9.68886 16.7227 10.5401 15.86 10.5401 14.7958C10.5401 13.7316 9.68886 12.8689 8.63882 12.8689C7.58878 12.8689 6.73755 13.7316 6.73755 14.7958C6.73755 15.86 7.58878 16.7227 8.63882 16.7227Z" stroke="#041C3F" stroke-width="1.42601"/>
<path d="M22.4962 16.7227C23.5463 16.7227 24.3975 15.86 24.3975 14.7958C24.3975 13.7316 23.5463 12.8689 22.4962 12.8689C21.4462 12.8689 20.595 13.7316 20.595 14.7958C20.595 15.86 21.4462 16.7227 22.4962 16.7227Z" stroke="#041C3F" stroke-width="1.42601"/>
<path d="M11.1704 4.05951H2.77612" stroke="#041C3F" stroke-width="1.42601" stroke-linecap="round"/>
<path d="M9.51524 6.74487H3.58594" stroke="#041C3F" stroke-width="1.42601" stroke-linecap="round"/>
<path d="M10.1149 9.76843H0.900635" stroke="#041C3F" stroke-width="1.42601" stroke-linecap="round"/>
</svg>
