<svg width="23" height="24" viewBox="0 0 23 24" fill="none" xmlns="http://www.w3.org/2000/svg">
<path d="M9.0989 20.1065C9.09821 19.4415 9.31688 18.7949 9.72101 18.2669C10.1251 17.7388 10.6922 17.3588 11.3342 17.1858C11.9762 17.0127 12.6574 17.0562 13.2722 17.3096C13.887 17.563 14.401 18.0121 14.7346 18.5874C17.0319 17.5739 17.8926 15.9833 17.8926 12.9605V9.66283C17.8926 5.27476 15.4183 2.24312 11.5721 2.24312C7.72598 2.24312 5.25164 5.27586 5.25164 9.66283V13.5101C5.25135 13.7286 5.1644 13.9382 5.00986 14.0927C4.85531 14.2472 4.64579 14.3342 4.42723 14.3345H3.32802C2.52677 14.3336 1.75857 14.015 1.1919 13.4485C0.625225 12.8821 0.306339 12.114 0.305176 11.3127L0.305176 10.2135C0.306048 9.41199 0.62477 8.64351 1.19144 8.07663C1.75811 7.50976 2.52648 7.19075 3.32802 7.18959H3.85344C4.68555 3.26429 7.53362 0.594299 11.5721 0.594299C15.6106 0.594299 18.4576 3.26429 19.2897 7.18959H19.8151C20.6165 7.19075 21.3847 7.5096 21.9513 8.07625C22.518 8.64289 22.8368 9.41108 22.838 10.2124V11.3116C22.8371 12.1131 22.5184 12.8815 21.9517 13.4482C21.385 14.0149 20.6166 14.3336 19.8151 14.3345H19.4755C19.4331 15.6364 18.9963 16.8947 18.2229 17.9429C17.4495 18.9911 16.376 19.7797 15.1446 20.2043C15.1316 21.006 14.8007 21.7697 14.2246 22.3274C13.6486 22.8852 12.8745 23.1912 12.0728 23.1782C11.2711 23.1653 10.5074 22.8343 9.94968 22.2583C9.39196 21.6822 9.08593 20.9082 9.0989 20.1065ZM10.7477 20.1065C10.7477 20.3782 10.8283 20.6439 10.9793 20.8698C11.1303 21.0958 11.3449 21.2719 11.5959 21.3759C11.847 21.4799 12.1233 21.5071 12.3898 21.4541C12.6563 21.4011 12.9012 21.2702 13.0933 21.078C13.2855 20.8859 13.4163 20.6411 13.4694 20.3745C13.5224 20.108 13.4952 19.8317 13.3912 19.5807C13.2872 19.3296 13.1111 19.115 12.8851 18.964C12.6591 18.813 12.3935 18.7325 12.1217 18.7325C11.7574 18.7327 11.4081 18.8776 11.1505 19.1352C10.8929 19.3928 10.748 19.7421 10.7477 20.1065ZM19.5414 12.6868H19.8151C20.1797 12.6868 20.5293 12.542 20.7871 12.2844C21.045 12.0267 21.19 11.6773 21.1903 11.3127V10.2135C21.1903 9.84902 21.0455 9.49942 20.7879 9.24156C20.5302 8.98371 20.1808 8.83871 19.8162 8.83841H19.5414V12.6868ZM1.954 10.2135V11.3127C1.95458 11.6769 2.09957 12.0259 2.35715 12.2833C2.61473 12.5407 2.96388 12.6854 3.32802 12.6857H3.60282V8.83841H3.32802C2.9635 8.83871 2.61402 8.98371 2.35637 9.24156C2.09873 9.49942 1.954 9.84902 1.954 10.2135Z" fill="#041C3F"/>
</svg>
