<svg width="31" height="31" viewBox="0 0 31 31" fill="none" xmlns="http://www.w3.org/2000/svg">
<path d="M22.7917 11.0476C22.255 11.2809 21.679 11.4413 21.0738 11.5113C21.6921 11.1467 22.1646 10.5692 22.3892 9.88235C21.8088 10.2192 21.17 10.4657 20.4875 10.5969C20.2059 10.3017 19.8671 10.067 19.4917 9.90702C19.1164 9.74706 18.7124 9.66523 18.3044 9.66652C16.6521 9.66652 15.3134 10.9863 15.3134 12.6124C15.3134 12.8428 15.3396 13.0674 15.3907 13.2832C14.2055 13.2269 13.0451 12.9242 11.9835 12.3944C10.9219 11.8646 9.98233 11.1193 9.22483 10.2061C8.95878 10.654 8.8187 11.1654 8.81942 11.6863C8.81942 12.7071 9.34879 13.6113 10.1509 14.1378C9.67611 14.1229 9.2115 13.9965 8.79462 13.7688V13.8053C8.79913 14.4899 9.04079 15.1518 9.47846 15.6783C9.91613 16.2048 10.5228 16.5633 11.195 16.6928C10.7537 16.8095 10.2919 16.8264 9.84317 16.7424C10.0388 17.3313 10.4129 17.8448 10.9136 18.2114C11.4143 18.5781 12.0168 18.7797 12.6373 18.7884C11.5727 19.6088 10.2656 20.052 8.9215 20.0484C8.68087 20.0484 8.44317 20.0338 8.20837 20.0076C9.5799 20.8757 11.1702 21.3355 12.7934 21.3332C18.2971 21.3332 21.3057 16.8444 21.3057 12.9507L21.2955 12.5686C21.8821 12.1563 22.3891 11.6409 22.7917 11.0476Z" fill="#041C3F"/>
<path d="M6.74996 3.83317C5.97641 3.83317 5.23455 4.14046 4.68756 4.68744C4.14058 5.23442 3.83329 5.97629 3.83329 6.74984V24.2498C3.83329 25.0234 4.14058 25.7652 4.68756 26.3122C5.23455 26.8592 5.97641 27.1665 6.74996 27.1665H24.25C25.0235 27.1665 25.7654 26.8592 26.3124 26.3122C26.8593 25.7652 27.1666 25.0234 27.1666 24.2498V6.74984C27.1666 5.97629 26.8593 5.23442 26.3124 4.68744C25.7654 4.14046 25.0235 3.83317 24.25 3.83317H6.74996ZM6.74996 0.916504H24.25C25.7971 0.916504 27.2808 1.53109 28.3747 2.62505C29.4687 3.71901 30.0833 5.20274 30.0833 6.74984V24.2498C30.0833 25.7969 29.4687 27.2807 28.3747 28.3746C27.2808 29.4686 25.7971 30.0832 24.25 30.0832H6.74996C5.20286 30.0832 3.71913 29.4686 2.62517 28.3746C1.53121 27.2807 0.916626 25.7969 0.916626 24.2498V6.74984C0.916626 5.20274 1.53121 3.71901 2.62517 2.62505C3.71913 1.53109 5.20286 0.916504 6.74996 0.916504Z" fill="#041C3F"/>
</svg>
