<svg width="35" height="27" viewBox="0 0 35 27" fill="none" xmlns="http://www.w3.org/2000/svg">
<path d="M33.6021 22.5083C32.9622 23.9466 31.3118 25.2492 29.7619 25.5369C29.6033 25.5664 25.8157 26.25 17.5108 26.25H17.4889C9.1852 26.25 5.39426 25.5664 5.23676 25.538C3.68691 25.2492 2.03535 23.9466 1.39441 22.5072C1.33754 22.3792 0.000976562 19.3014 0.000976562 13.125C0.000976562 6.94859 1.33754 3.86969 1.39441 3.74172C2.03535 2.30234 3.68691 1.00078 5.23676 0.713125C5.39426 0.683594 9.1852 0 17.4889 0C25.8157 0 29.6033 0.683594 29.7608 0.712031C31.3118 1.00078 32.9622 2.30234 33.6032 3.74063C33.66 3.86969 34.9999 6.94859 34.9999 13.125C34.9999 19.3014 33.66 22.3792 33.6021 22.5083ZM31.6016 4.62656C31.2604 3.85984 30.1907 3.01766 29.3616 2.86344C29.3266 2.85687 25.5783 2.1875 17.5108 2.1875C9.42254 2.1875 5.67098 2.85687 5.63488 2.86344C4.80582 3.01766 3.73723 3.85984 3.39488 4.63094C3.38395 4.65391 2.18957 7.46922 2.18957 13.125C2.18957 18.7797 3.38395 21.595 3.39707 21.6234C3.73723 22.3902 4.80582 23.2323 5.63598 23.3866C5.67098 23.3931 9.42254 24.0625 17.4889 24.0625H17.5108C25.5783 24.0625 29.3266 23.3931 29.3627 23.3866C30.1918 23.2323 31.2604 22.3902 31.6027 21.6191C31.6136 21.595 32.8102 18.7797 32.8102 13.125C32.8102 7.47031 31.6136 4.65391 31.6016 4.62656ZM14.8104 19.5191C14.6332 19.6317 14.4297 19.6875 14.2274 19.6875C14.0458 19.6875 13.8643 19.6427 13.6991 19.5508C13.3502 19.3583 13.1336 18.9919 13.1336 18.5938V7.65625C13.1336 7.25922 13.348 6.89391 13.6947 6.70141C14.0414 6.50781 14.4669 6.51656 14.8027 6.72547L23.5735 12.1461C23.8939 12.3441 24.0908 12.6941 24.0919 13.0714C24.093 13.4488 23.9005 13.8009 23.5811 14.0011L14.8104 19.5191ZM15.3222 9.61844V16.613L20.931 13.0845L15.3222 9.61844Z" fill="#041C3F"/>
</svg>
